<svg xmlns="http://www.w3.org/2000/svg" width="190.748" height="168.778" viewBox="0 0 190.748 168.778">
  <path id="Caminho_23" data-name="Caminho 23" d="M797.777,597.741a4.061,4.061,0,0,0-3.932-3.05H770.967v-3.583a37.872,37.872,0,0,0-75.743,0v3.583H672.346a4.06,4.06,0,0,0-3.932,3.05L637.848,716.949a4.059,4.059,0,0,0,3.932,5.066H824.411a4.056,4.056,0,0,0,3.931-5.066Zm-94.436-6.633a29.754,29.754,0,1,1,59.508,0v3.583H703.342ZM647.011,713.9l28.483-111.09h19.729v13.718a9.359,9.359,0,1,0,8.118,0V602.809H762.85v13.718a9.36,9.36,0,1,0,8.117,0V602.809H790.7L819.18,713.9Z" transform="translate(-637.721 -553.237)"/>
</svg>
