<svg xmlns="http://www.w3.org/2000/svg" width="421.014" height="72.942" viewBox="0 0 421.014 72.942">
  <g id="Grupo_1" data-name="Grupo 1" transform="translate(-833.293 -777.8)">
    <path id="Caminho_1" data-name="Caminho 1" d="M908.315,848.374h-7.232L895.8,797.638l-23.5,50.735h-3.43l-23.072-50.58-5.281,50.58h-7.232l7.656-70.269h3.482l26.138,57.968,26.6-57.968h3.487Z" transform="translate(0 1.014)" fill="#101010"/>
    <path id="Caminho_2" data-name="Caminho 2" d="M918.4,840.253q-10.64,10.459-26.423,10.454t-26.449-10.454q-10.667-10.445-10.667-26.025t10.667-26Q876.185,777.8,891.974,777.8T918.4,788.224q10.64,10.432,10.64,26T918.4,840.253Zm-47.3-4.987q8.312,8.265,20.852,8.266t20.883-8.266q8.338-8.259,8.339-21.012t-8.339-21.039q-8.344-8.285-20.883-8.291T871.1,793.215q-8.317,8.285-8.317,21.039T871.1,835.266Z" transform="translate(71.713 0)" fill="#101010"/>
    <path id="Caminho_3" data-name="Caminho 3" d="M911.551,778.105l32.414,69.633-.316.636h-7.655l-7.284-15.891H890.539l-7.34,15.891h-7.444l-.316-.636,32.625-69.633ZM893.7,825.567h31.782L909.7,790.83Z" transform="translate(140.147 1.014)" fill="#101010"/>
    <path id="Caminho_4" data-name="Caminho 4" d="M950.9,778.105l32.418,69.633-.315.636h-7.656l-7.288-15.891H929.887l-7.34,15.891H915.1l-.315-.636,32.63-69.633Zm-17.842,47.461h31.778L949.052,790.83Z" transform="translate(270.99 1.014)" fill="#101010"/>
    <path id="Caminho_5" data-name="Caminho 5" d="M960.147,828.746l-6.661,2.539a9.065,9.065,0,0,1-2.27,9.568,6.978,6.978,0,0,1-1.068.8,8.1,8.1,0,0,1-3.646.938c-3.663-.112-5.541-2.794-6.544-4.585-2.119-4.031-4.969-13.088-5.571-14.732-.247-.657-.592-1.406-.978-2.271a9.859,9.859,0,0,0-1.189-2.058,3.47,3.47,0,0,0-1.345-1.082q8.129-1.693,12.275-6.678t4.144-12.751q0-9.609-6.389-14.966t-18.374-5.359H896.189v70.269h7.76V818.65h17.314q3.594,0,6.812,9.611,1.161,3.276,1.558,4.274t1.635,4.04A26.831,26.831,0,0,0,933.3,840.8c.917,1.661,3.265,5.151,5.152,6.388,3.144,2.587,7.457,2.543,8.352,2.543a13.491,13.491,0,0,0,9.239-3.629A16.233,16.233,0,0,0,960.147,828.746Zm-35.553-16.8H903.949V785.021h20.645q6.909,0,10.822,3.72a12.753,12.753,0,0,1,3.906,9.663,13.005,13.005,0,0,1-3.906,9.74Q931.5,811.947,924.593,811.947Z" transform="translate(209.147 1.014)" fill="#101010"/>
  </g>
</svg>
